<svg width="32" height="32" viewBox="0 0 32 32" fill="none" xmlns="http://www.w3.org/2000/svg">
  <!-- Chess Knight piece in minimalist style -->
  <rect width="32" height="32" fill="#0a0a0a"/>
  <path d="M8 26h16v2H8v-2z" fill="#22c55e"/>
  <path d="M10 24h12v2H10v-2z" fill="#22c55e"/>
  <path d="M11 22h10v2H11v-2z" fill="#22c55e"/>
  <path d="M12 20h8v2h-8v-2z" fill="#22c55e"/>
  <path d="M13 18h6v2h-6v-2z" fill="#22c55e"/>
  <path d="M14 16h4v2h-4v-2z" fill="#22c55e"/>
  <path d="M15 14h2v2h-2v-2z" fill="#22c55e"/>
  <path d="M14 12h4v2h-4v-2z" fill="#22c55e"/>
  <path d="M13 10h6v2h-6v-2z" fill="#22c55e"/>
  <path d="M12 8h8v2h-8v-2z" fill="#22c55e"/>
  <path d="M11 6h10v2H11V6z" fill="#22c55e"/>
  <path d="M10 4h12v2H10V4z" fill="#22c55e"/>
  <!-- Knight's distinctive shape -->
  <path d="M16 6h4v2h-4V6z" fill="#0a0a0a"/>
  <path d="M18 8h2v2h-2V8z" fill="#0a0a0a"/>
  <path d="M17 10h3v2h-3v-2z" fill="#0a0a0a"/>
  <path d="M16 12h2v2h-2v-2z" fill="#0a0a0a"/>
</svg>